<svg xmlns="http://www.w3.org/2000/svg" viewBox="0 0 512 512" width="512" height="512">

    <defs>
      <radialGradient id="begfbg" cx="50%" cy="42%" r="75%">
        <stop offset="0%" stop-color="#C2AC8A"/>
        <stop offset="100%" stop-color="#7E6A4E"/>
      </radialGradient>
      <filter id="soft"><feGaussianBlur stdDeviation="3"/></filter>
    </defs>
    <rect width="512" height="512" fill="url(#begfbg)"/>
    <text x="80" y="430" font-size="42" opacity="0.4">🍃</text><text x="396" y="130" font-size="38" opacity="0.4">☀️</text><g opacity="0.14"><circle cx="60" cy="420" r="6" fill="#5E4A30"/><circle cx="150" cy="450" r="6" fill="#5E4A30"/><circle cx="240" cy="420" r="6" fill="#5E4A30"/><circle cx="330" cy="450" r="6" fill="#5E4A30"/><circle cx="420" cy="420" r="6" fill="#5E4A30"/></g>
    <ellipse cx="256" cy="505" rx="120" ry="18" fill="#000000" opacity="0.18"/><ellipse cx="352" cy="432" rx="32" ry="13" fill="#8B6F47"/><path d="M320,432 Q352,468 384,432 Z" fill="#A6855A"/><path d="M168,185 Q146,265 158,400 L194,400 Q184,245 194,205 Z" fill="#2B2620"/><path d="M344,185 Q366,265 354,400 L318,400 Q328,245 318,205 Z" fill="#2B2620"/>
    <path d="M178,512 L190,320 Q256,284 322,320 L334,512 Z" fill="#A89A80"/>
    <path d="M178,512 L190,320 Q226,300 256,304 L256,512 Z" fill="#867658" opacity="0.5"/>
    <path d="M226,296 L256,330 L286,296 L274,288 L256,312 L238,288 Z" fill="#9A8A6E"/>
    <rect x="226" y="352" width="24" height="24" fill="#8A7A5E" stroke="#5E4A30" stroke-width="2" stroke-dasharray="4"/><rect x="266" y="384" width="22" height="22" fill="#94835F" stroke="#5E4A30" stroke-width="2" stroke-dasharray="4"/><path d="M164,205 Q162,113 256,111 Q350,113 348,205 Q348,153 334,159 Q256,137 178,159 Q164,153 164,205 Z" fill="#3A2A1A"/>
    <ellipse cx="256" cy="205" rx="92" ry="86" fill="#E6C098"/>
    <ellipse cx="210" cy="231" rx="17" ry="11" fill="#F7A8A0" opacity="0.55"/>
    <ellipse cx="302" cy="231" rx="17" ry="11" fill="#F7A8A0" opacity="0.55"/>
    <path d="M186,150 Q256,124 326,150 L320,138 Q256,118 192,138 Z" fill="#C9BBA0"/><path d="M205,172 Q218,167 231,171" stroke="#3A2A1A" stroke-width="5" fill="none" stroke-linecap="round"/><path d="M281,171 Q294,167 307,172" stroke="#3A2A1A" stroke-width="5" fill="none" stroke-linecap="round"/><path d="M205,203 Q218,188 231,203" stroke="#2B2118" stroke-width="6" fill="none" stroke-linecap="round"/><path d="M281,203 Q294,188 307,203" stroke="#2B2118" stroke-width="6" fill="none" stroke-linecap="round"/><path d="M234,248 Q256,274 278,248 Z" fill="#B5433A"/><path d="M240,256 Q256,263 272,256" fill="#FF9E9E"/>
</svg>