<svg xmlns="http://www.w3.org/2000/svg" viewBox="0 0 512 512" width="512" height="512">

    <defs>
      <radialGradient id="begbg" cx="50%" cy="42%" r="75%">
        <stop offset="0%" stop-color="#BFA98A"/>
        <stop offset="100%" stop-color="#7E6A4E"/>
      </radialGradient>
      <filter id="soft"><feGaussianBlur stdDeviation="3"/></filter>
    </defs>
    <rect width="512" height="512" fill="url(#begbg)"/>
    <text x="80" y="430" font-size="44" opacity="0.4">🍃</text><text x="400" y="130" font-size="40" opacity="0.4">🍂</text><g opacity="0.15"><circle cx="60" cy="420" r="6" fill="#5E4A30"/><circle cx="150" cy="450" r="6" fill="#5E4A30"/><circle cx="240" cy="420" r="6" fill="#5E4A30"/><circle cx="330" cy="450" r="6" fill="#5E4A30"/><circle cx="420" cy="420" r="6" fill="#5E4A30"/></g>
    <ellipse cx="256" cy="505" rx="120" ry="18" fill="#000000" opacity="0.18"/><ellipse cx="350" cy="430" rx="34" ry="14" fill="#8B6F47"/><path d="M316,430 Q350,470 384,430 Z" fill="#A6855A"/><ellipse cx="350" cy="430" rx="26" ry="9" fill="#5E4A30"/>
    <path d="M178,512 L190,320 Q256,284 322,320 L334,512 Z" fill="#9C8E76"/>
    <path d="M178,512 L190,320 Q226,300 256,304 L256,512 Z" fill="#7C6E58" opacity="0.5"/>
    <path d="M226,296 L256,330 L286,296 L274,288 L256,312 L238,288 Z" fill="#8B7A60"/>
    <rect x="222" y="350" width="26" height="26" fill="#7A6A50" stroke="#5E4A30" stroke-width="2" stroke-dasharray="4"/><rect x="268" y="380" width="24" height="24" fill="#867456" stroke="#5E4A30" stroke-width="2" stroke-dasharray="4"/><path d="M164,195 Q164,111 256,109 Q348,111 348,195 Q340,149 256,141 Q172,149 164,195 Z" fill="#3A2A1A"/>
    <ellipse cx="256" cy="205" rx="92" ry="86" fill="#E6C098"/>
    <ellipse cx="210" cy="231" rx="17" ry="11" fill="#F7A8A0" opacity="0.55"/>
    <ellipse cx="302" cy="231" rx="17" ry="11" fill="#F7A8A0" opacity="0.55"/>
    <ellipse cx="256" cy="150" rx="70" ry="16" fill="#9A845E"/><ellipse cx="256" cy="146" rx="40" ry="22" fill="#B09A70"/><path d="M236,150 l-6,8 M276,150 l6,8" stroke="#7A6A50" stroke-width="2"/><path d="M205,172 Q218,167 231,171" stroke="#3A2A1A" stroke-width="5" fill="none" stroke-linecap="round"/><path d="M281,171 Q294,167 307,172" stroke="#3A2A1A" stroke-width="5" fill="none" stroke-linecap="round"/><ellipse cx="218" cy="202" rx="12" ry="15" fill="#FFFFFF"/><circle cx="218" cy="206" r="9" fill="#2B2118"/><circle cx="221" cy="202" r="3" fill="#FFFFFF"/><path d="M203,188 Q218,193 226,190" stroke="#2B2118" stroke-width="3.5" fill="none" stroke-linecap="round"/><ellipse cx="294" cy="202" rx="12" ry="15" fill="#FFFFFF"/><circle cx="294" cy="206" r="9" fill="#2B2118"/><circle cx="297" cy="202" r="3" fill="#FFFFFF"/><path d="M279,188 Q294,193 302,190" stroke="#2B2118" stroke-width="3.5" fill="none" stroke-linecap="round"/><path d="M238,250 Q256,266 274,250" stroke="#B5433A" stroke-width="5" fill="none" stroke-linecap="round"/>
</svg>