<svg xmlns="http://www.w3.org/2000/svg" viewBox="0 0 512 512" width="512" height="512">

    <defs>
      <radialGradient id="clownbg" cx="50%" cy="42%" r="75%">
        <stop offset="0%" stop-color="#FFB84D"/>
        <stop offset="100%" stop-color="#E0632A"/>
      </radialGradient>
      <filter id="soft"><feGaussianBlur stdDeviation="3"/></filter>
    </defs>
    <rect width="512" height="512" fill="url(#clownbg)"/>
    <g opacity="0.85"><circle cx="60" cy="30" r="10" fill="#FFD93D" opacity="0.7"/><circle cx="140" cy="103" r="14" fill="#FF6B6B" opacity="0.7"/><circle cx="220" cy="176" r="18" fill="#6BCB77" opacity="0.7"/><circle cx="300" cy="249" r="10" fill="#4D96FF" opacity="0.7"/><circle cx="380" cy="322" r="14" fill="#FF8FB1" opacity="0.7"/><circle cx="460" cy="395" r="18" fill="#C780FA" opacity="0.7"/><circle cx="540" cy="468" r="10" fill="#FFD93D" opacity="0.7"/><circle cx="620" cy="81" r="14" fill="#FF6B6B" opacity="0.7"/><circle cx="700" cy="154" r="18" fill="#6BCB77" opacity="0.7"/><circle cx="780" cy="227" r="10" fill="#4D96FF" opacity="0.7"/><circle cx="860" cy="300" r="14" fill="#FF8FB1" opacity="0.7"/><circle cx="940" cy="373" r="18" fill="#C780FA" opacity="0.7"/><circle cx="1020" cy="446" r="10" fill="#FFD93D" opacity="0.7"/><circle cx="1100" cy="59" r="14" fill="#FF6B6B" opacity="0.7"/></g>
    <ellipse cx="256" cy="505" rx="120" ry="18" fill="#000000" opacity="0.18"/>
    <path d="M178,512 L190,320 Q256,284 322,320 L334,512 Z" fill="#E04F4F"/>
    <path d="M178,512 L190,320 Q226,300 256,304 L256,512 Z" fill="#B83838" opacity="0.5"/>
    <path d="M226,296 L256,330 L286,296 L274,288 L256,312 L238,288 Z" fill="#FFD93D"/>
    <rect x="220" y="320" width="32" height="32" fill="#4D96FF" opacity="0.85"/><rect x="260" y="340" width="32" height="32" fill="#6BCB77" opacity="0.85"/><rect x="236" y="370" width="32" height="32" fill="#FFD93D" opacity="0.85"/><path d="M164,195 Q164,111 256,109 Q348,111 348,195 Q340,149 256,141 Q172,149 164,195 Z" fill="#3A2A1A"/>
    <ellipse cx="256" cy="205" rx="92" ry="86" fill="#FBE0C4"/>
    <ellipse cx="210" cy="231" rx="17" ry="11" fill="#F7A8A0" opacity="0.55"/>
    <ellipse cx="302" cy="231" rx="17" ry="11" fill="#F7A8A0" opacity="0.55"/>
    <path d="M196,150 Q256,150 316,150 L304,120 Q256,104 208,120 Z" fill="#2C4A6E"/><ellipse cx="256" cy="150" rx="64" ry="12" fill="#3A5E88"/><path d="M256,104 Q250,70 270,50 Q278,72 262,100 Z" fill="#E04F4F"/><path d="M256,104 Q262,72 248,52 Q240,74 252,100 Z" fill="#FFD93D"/><circle cx="256" cy="104" r="8" fill="#6BCB77"/><circle cx="256" cy="230" r="11" fill="#E04F4F"/><circle cx="252" cy="226" r="3.5" fill="#FF9E9E"/><path d="M205,172 Q218,167 231,171" stroke="#3A2A1A" stroke-width="5" fill="none" stroke-linecap="round"/><path d="M281,171 Q294,167 307,172" stroke="#3A2A1A" stroke-width="5" fill="none" stroke-linecap="round"/><path d="M205,203 Q218,188 231,203" stroke="#2B2118" stroke-width="6" fill="none" stroke-linecap="round"/><path d="M281,203 Q294,188 307,203" stroke="#2B2118" stroke-width="6" fill="none" stroke-linecap="round"/><path d="M234,248 Q256,274 278,248 Z" fill="#B5433A"/><path d="M240,256 Q256,263 272,256" fill="#FF9E9E"/>
</svg>