<svg xmlns="http://www.w3.org/2000/svg" viewBox="0 0 512 512" width="512" height="512">

    <defs>
      <radialGradient id="kingbg" cx="50%" cy="42%" r="75%">
        <stop offset="0%" stop-color="#C9A84C"/>
        <stop offset="100%" stop-color="#7A5E1E"/>
      </radialGradient>
      <filter id="soft"><feGaussianBlur stdDeviation="3"/></filter>
    </defs>
    <rect width="512" height="512" fill="url(#kingbg)"/>
    <circle cx="256" cy="200" r="170" fill="#FFFFFF" opacity="0.06"/><g opacity="0.5"><circle cx="80" cy="70" r="3" fill="#FFE9A8"/><circle cx="150" cy="100" r="3" fill="#FFE9A8"/><circle cx="220" cy="70" r="3" fill="#FFE9A8"/><circle cx="290" cy="100" r="3" fill="#FFE9A8"/><circle cx="360" cy="70" r="3" fill="#FFE9A8"/><circle cx="430" cy="100" r="3" fill="#FFE9A8"/></g><circle cx="256" cy="205" r="150" fill="none" stroke="#FFE9A8" stroke-width="2" opacity="0.3"/>
    <ellipse cx="256" cy="505" rx="120" ry="18" fill="#000000" opacity="0.18"/>
    <path d="M178,512 L190,320 Q256,284 322,320 L334,512 Z" fill="#9B1B1B"/>
    <path d="M178,512 L190,320 Q226,300 256,304 L256,512 Z" fill="#6E0F0F" opacity="0.5"/>
    <path d="M226,296 L256,330 L286,296 L274,288 L256,312 L238,288 Z" fill="#E0B84C"/>
    <circle cx="256" cy="360" r="34" fill="#E0B84C"/><text x="256" y="372" font-size="34" text-anchor="middle">🐉</text><path d="M164,195 Q164,111 256,109 Q348,111 348,195 Q340,149 256,141 Q172,149 164,195 Z" fill="#2B2620"/>
    <ellipse cx="256" cy="205" rx="92" ry="86" fill="#FBE0C4"/>
    <ellipse cx="210" cy="231" rx="17" ry="11" fill="#F7A8A0" opacity="0.55"/>
    <ellipse cx="302" cy="231" rx="17" ry="11" fill="#F7A8A0" opacity="0.55"/>
    <path d="M188,150 Q256,120 324,150 L318,170 Q256,150 194,170 Z" fill="#1A1A1A"/><rect x="206" y="108" width="100" height="44" rx="10" fill="#1A1A1A"/><rect x="206" y="108" width="100" height="44" rx="10" fill="none" stroke="#E0B84C" stroke-width="3"/><ellipse cx="226" cy="98" rx="13" ry="18" fill="#1A1A1A"/><ellipse cx="286" cy="98" rx="13" ry="18" fill="#1A1A1A"/><circle cx="256" cy="130" r="9" fill="#E0B84C"/><path d="M205,170 Q218,166 231,170" stroke="#3A2A1A" stroke-width="5" fill="none" stroke-linecap="round"/><path d="M281,170 Q294,166 307,170" stroke="#3A2A1A" stroke-width="5" fill="none" stroke-linecap="round"/><path d="M203,196 Q218,188 233,196" stroke="#2B2118" stroke-width="5" fill="none" stroke-linecap="round"/><circle cx="218" cy="202" r="7" fill="#2B2118"/><path d="M279,196 Q294,188 309,196" stroke="#2B2118" stroke-width="5" fill="none" stroke-linecap="round"/><circle cx="294" cy="202" r="7" fill="#2B2118"/><path d="M238,250 Q256,266 274,250" stroke="#B5433A" stroke-width="5" fill="none" stroke-linecap="round"/><path d="M244,228 Q256,238 268,228" stroke="#E8B89A" stroke-width="3" fill="none"/>
</svg>