<svg xmlns="http://www.w3.org/2000/svg" viewBox="0 0 512 512" width="512" height="512">

    <defs>
      <radialGradient id="ladybg" cx="50%" cy="42%" r="75%">
        <stop offset="0%" stop-color="#D8B86A"/>
        <stop offset="100%" stop-color="#9A6E2E"/>
      </radialGradient>
      <filter id="soft"><feGaussianBlur stdDeviation="3"/></filter>
    </defs>
    <rect width="512" height="512" fill="url(#ladybg)"/>
    <g opacity="0.16"><path d="M60,60 q24,40 0,80 q-24,-40 0,-80" fill="#8A2F2F"/><path d="M160,60 q24,40 0,80 q-24,-40 0,-80" fill="#8A2F2F"/><path d="M260,60 q24,40 0,80 q-24,-40 0,-80" fill="#8A2F2F"/><path d="M360,60 q24,40 0,80 q-24,-40 0,-80" fill="#8A2F2F"/></g><text x="392" y="135" font-size="38" opacity="0.5">🪭</text>
    <ellipse cx="256" cy="505" rx="120" ry="18" fill="#000000" opacity="0.18"/><path d="M168,185 Q146,265 158,512 L194,512 Q184,245 194,205 Z" fill="#2B2620"/><path d="M344,185 Q366,265 354,512 L318,512 Q328,245 318,205 Z" fill="#2B2620"/>
    <path d="M178,512 L190,320 Q256,284 322,320 L334,512 Z" fill="#7E5AA0"/>
    <path d="M178,512 L190,320 Q226,300 256,304 L256,512 Z" fill="#5E3E80" opacity="0.5"/>
    <path d="M226,296 L256,330 L286,296 L274,288 L256,312 L238,288 Z" fill="#F2E6CC"/>
    <rect x="222" y="306" width="68" height="12" rx="4" fill="#E0B84C"/><g fill="#E0B84C" opacity="0.4"><circle cx="234" cy="350" r="5"/><circle cx="256" cy="350" r="5"/><circle cx="278" cy="350" r="5"/><circle cx="234" cy="376" r="5"/><circle cx="256" cy="376" r="5"/><circle cx="278" cy="376" r="5"/><circle cx="234" cy="402" r="5"/><circle cx="256" cy="402" r="5"/><circle cx="278" cy="402" r="5"/></g><path d="M164,205 Q162,113 256,111 Q350,113 348,205 Q348,153 334,159 Q256,137 178,159 Q164,153 164,205 Z" fill="#2B2620"/><ellipse cx="256" cy="120" rx="66" ry="28" fill="#2B2118"/>
    <ellipse cx="256" cy="205" rx="92" ry="86" fill="#FBE0C4"/>
    <ellipse cx="210" cy="231" rx="17" ry="11" fill="#F7A8A0" opacity="0.55"/>
    <ellipse cx="302" cy="231" rx="17" ry="11" fill="#F7A8A0" opacity="0.55"/>
    <rect x="206" y="118" width="54" height="6" rx="3" fill="#E0B84C" transform="rotate(-4 233 121)"/><circle cx="200" cy="120" r="8" fill="#5BA89A"/><circle cx="312" cy="122" r="8" fill="#E04F4F"/><path d="M256,92 l-8,-16 l16,0 Z" fill="#E0B84C"/><path d="M205,170 Q218,166 231,170" stroke="#3A2A1A" stroke-width="5" fill="none" stroke-linecap="round"/><path d="M281,170 Q294,166 307,170" stroke="#3A2A1A" stroke-width="5" fill="none" stroke-linecap="round"/><path d="M203,196 Q218,188 233,196" stroke="#2B2118" stroke-width="5" fill="none" stroke-linecap="round"/><circle cx="218" cy="202" r="7" fill="#2B2118"/><path d="M279,196 Q294,188 309,196" stroke="#2B2118" stroke-width="5" fill="none" stroke-linecap="round"/><circle cx="294" cy="202" r="7" fill="#2B2118"/><path d="M240,252 Q260,260 276,244" stroke="#8A2F5F" stroke-width="5" fill="none" stroke-linecap="round"/>
</svg>