<svg xmlns="http://www.w3.org/2000/svg" viewBox="0 0 512 512" width="512" height="512">

    <defs>
      <radialGradient id="merbg" cx="50%" cy="42%" r="75%">
        <stop offset="0%" stop-color="#E0C078"/>
        <stop offset="100%" stop-color="#A8782E"/>
      </radialGradient>
      <filter id="soft"><feGaussianBlur stdDeviation="3"/></filter>
    </defs>
    <rect width="512" height="512" fill="url(#merbg)"/>
    <g opacity="0.18"><path d="M50,50 l30,0 l-6,18 l-18,0 Z" fill="#B8923C"/><path d="M150,50 l30,0 l-6,18 l-18,0 Z" fill="#B8923C"/><path d="M250,50 l30,0 l-6,18 l-18,0 Z" fill="#B8923C"/><path d="M350,50 l30,0 l-6,18 l-18,0 Z" fill="#B8923C"/></g><text x="396" y="130" font-size="38" opacity="0.5">💰</text><text x="80" y="430" font-size="34" opacity="0.45">🪙</text>
    <ellipse cx="256" cy="505" rx="120" ry="18" fill="#000000" opacity="0.18"/><g transform="rotate(-10 150 350)"><path d="M110,300 Q150,270 190,300 L196,360 Q150,376 104,360 Z" fill="#C24A4A"/><path d="M110,300 Q150,288 190,300" stroke="#8A2F2F" stroke-width="4" fill="none"/><circle cx="150" cy="296" r="8" fill="#E0B84C"/></g><path d="M168,185 Q146,265 158,410 L194,410 Q184,245 194,205 Z" fill="#2B2620"/><path d="M344,185 Q366,265 354,410 L318,410 Q328,245 318,205 Z" fill="#2B2620"/>
    <path d="M178,512 L190,320 Q256,284 322,320 L334,512 Z" fill="#5E8C6A"/>
    <path d="M178,512 L190,320 Q226,300 256,304 L256,512 Z" fill="#3E6C4A" opacity="0.5"/>
    <path d="M226,296 L256,330 L286,296 L274,288 L256,312 L238,288 Z" fill="#F2E6CC"/>
    <rect x="226" y="306" width="60" height="11" rx="4" fill="#C24A4A"/><path d="M164,205 Q162,113 256,111 Q350,113 348,205 Q348,153 334,159 Q256,137 178,159 Q164,153 164,205 Z" fill="#2B2620"/><ellipse cx="256" cy="120" rx="58" ry="24" fill="#2B2118"/>
    <ellipse cx="256" cy="205" rx="92" ry="86" fill="#F0CBA0"/>
    <ellipse cx="210" cy="231" rx="17" ry="11" fill="#F7A8A0" opacity="0.55"/>
    <ellipse cx="302" cy="231" rx="17" ry="11" fill="#F7A8A0" opacity="0.55"/>
    <rect x="210" y="118" width="50" height="5" rx="3" fill="#B8923C" transform="rotate(-4 235 120)"/><path d="M205,170 Q218,166 231,170" stroke="#3A2A1A" stroke-width="5" fill="none" stroke-linecap="round"/><path d="M281,170 Q294,166 307,170" stroke="#3A2A1A" stroke-width="5" fill="none" stroke-linecap="round"/><ellipse cx="218" cy="200" rx="13" ry="17" fill="#FFFFFF"/><circle cx="218" cy="203" r="10" fill="#2B2118"/><circle cx="221" cy="199" r="3.4" fill="#FFFFFF"/><ellipse cx="294" cy="200" rx="13" ry="17" fill="#FFFFFF"/><circle cx="294" cy="203" r="10" fill="#2B2118"/><circle cx="297" cy="199" r="3.4" fill="#FFFFFF"/><path d="M236,247 Q256,268 276,247 Z" fill="#FFFFFF" stroke="#B5433A" stroke-width="3"/><line x1="256" y1="248" x2="256" y2="260" stroke="#B5433A" stroke-width="2"/><text x="316" y="206" font-size="22">💪</text>
</svg>