<svg xmlns="http://www.w3.org/2000/svg" viewBox="0 0 512 512" width="512" height="512">

    <defs>
      <radialGradient id="pribg" cx="50%" cy="42%" r="75%">
        <stop offset="0%" stop-color="#F2C6D9"/>
        <stop offset="100%" stop-color="#C97AA0"/>
      </radialGradient>
      <filter id="soft"><feGaussianBlur stdDeviation="3"/></filter>
    </defs>
    <rect width="512" height="512" fill="url(#pribg)"/>
    <g opacity="0.6"><text x="60" y="50" font-size="18" opacity="0.7">✦</text><text x="130" y="111" font-size="26" opacity="0.7">✦</text><text x="200" y="172" font-size="34" opacity="0.7">✦</text><text x="270" y="233" font-size="18" opacity="0.7">✦</text><text x="340" y="294" font-size="26" opacity="0.7">✦</text><text x="410" y="355" font-size="34" opacity="0.7">✦</text><text x="480" y="416" font-size="18" opacity="0.7">✦</text><text x="550" y="477" font-size="26" opacity="0.7">✦</text><text x="620" y="98" font-size="34" opacity="0.7">✦</text></g><circle cx="256" cy="205" r="160" fill="none" stroke="#FFE9F2" stroke-width="2" opacity="0.4"/>
    <ellipse cx="256" cy="505" rx="120" ry="18" fill="#000000" opacity="0.18"/><path d="M168,185 Q146,265 158,512 L194,512 Q184,245 194,205 Z" fill="#2B2620"/><path d="M344,185 Q366,265 354,512 L318,512 Q328,245 318,205 Z" fill="#2B2620"/>
    <path d="M178,512 L190,320 Q256,284 322,320 L334,512 Z" fill="#E8A0C0"/>
    <path d="M178,512 L190,320 Q226,300 256,304 L256,512 Z" fill="#D080A8" opacity="0.5"/>
    <path d="M226,296 L256,330 L286,296 L274,288 L256,312 L238,288 Z" fill="#FFF2F8"/>
    <rect x="226" y="306" width="60" height="12" rx="4" fill="#C2185B"/><path d="M164,205 Q162,113 256,111 Q350,113 348,205 Q348,153 334,159 Q256,137 178,159 Q164,153 164,205 Z" fill="#2B2620"/>
    <ellipse cx="256" cy="205" rx="92" ry="86" fill="#FBE0C4"/>
    <ellipse cx="210" cy="231" rx="17" ry="11" fill="#F7A8A0" opacity="0.55"/>
    <ellipse cx="302" cy="231" rx="17" ry="11" fill="#F7A8A0" opacity="0.55"/>
    <path d="M210,140 Q256,112 302,140 L296,156 Q256,134 216,156 Z" fill="#C2185B"/><circle cx="256" cy="120" r="12" fill="#E0B84C"/><circle cx="226" cy="132" r="7" fill="#5BA89A"/><circle cx="286" cy="132" r="7" fill="#5BA89A"/><path d="M256,120 l0,-18" stroke="#E0B84C" stroke-width="3"/><circle cx="256" cy="100" r="6" fill="#FFE9A8"/><circle cx="256" cy="178" r="5" fill="#E04F7A"/><circle cx="222" cy="220" r="4" fill="#E04F7A"/><circle cx="290" cy="220" r="4" fill="#E04F7A"/><path d="M205,172 Q218,167 231,171" stroke="#3A2A1A" stroke-width="5" fill="none" stroke-linecap="round"/><path d="M281,171 Q294,167 307,172" stroke="#3A2A1A" stroke-width="5" fill="none" stroke-linecap="round"/><ellipse cx="218" cy="200" rx="15" ry="19" fill="#FFFFFF"/><circle cx="218" cy="203" r="11.5" fill="#2B2118"/><circle cx="222" cy="198" r="4" fill="#FFFFFF"/><circle cx="214" cy="207" r="2.2" fill="#FFFFFF" opacity="0.8"/><ellipse cx="294" cy="200" rx="15" ry="19" fill="#FFFFFF"/><circle cx="294" cy="203" r="11.5" fill="#2B2118"/><circle cx="298" cy="198" r="4" fill="#FFFFFF"/><circle cx="290" cy="207" r="2.2" fill="#FFFFFF" opacity="0.8"/><path d="M238,250 Q256,266 274,250" stroke="#C2185B" stroke-width="5" fill="none" stroke-linecap="round"/>
</svg>