<svg xmlns="http://www.w3.org/2000/svg" viewBox="0 0 512 512" width="512" height="512">

    <defs>
      <radialGradient id="shabg" cx="50%" cy="42%" r="75%">
        <stop offset="0%" stop-color="#8E6FB8"/>
        <stop offset="100%" stop-color="#3E2A5E"/>
      </radialGradient>
      <filter id="soft"><feGaussianBlur stdDeviation="3"/></filter>
    </defs>
    <rect width="512" height="512" fill="url(#shabg)"/>
    <circle cx="256" cy="205" r="165" fill="#FFFFFF" opacity="0.05"/><g opacity="0.55"><text x="50" y="50" font-size="22" fill="#E0C8FF">✶</text><text x="130" y="147" font-size="22" fill="#E0C8FF">✶</text><text x="210" y="244" font-size="22" fill="#E0C8FF">✶</text><text x="290" y="341" font-size="22" fill="#E0C8FF">✶</text><text x="370" y="438" font-size="22" fill="#E0C8FF">✶</text><text x="450" y="105" font-size="22" fill="#E0C8FF">✶</text><text x="530" y="202" font-size="22" fill="#E0C8FF">✶</text><text x="610" y="299" font-size="22" fill="#E0C8FF">✶</text><text x="690" y="396" font-size="22" fill="#E0C8FF">✶</text><text x="770" y="63" font-size="22" fill="#E0C8FF">✶</text></g><path d="M256,40 L268,76 L256,68 L244,76 Z" fill="#E0C8FF" opacity="0.6"/>
    <ellipse cx="256" cy="505" rx="120" ry="18" fill="#000000" opacity="0.18"/><path d="M168,185 Q146,265 158,512 L194,512 Q184,245 194,205 Z" fill="#2B2620"/><path d="M344,185 Q366,265 354,512 L318,512 Q328,245 318,205 Z" fill="#2B2620"/><g transform="rotate(20 360 360)"><rect x="356" y="330" width="8" height="70" fill="#8B6F47"/><circle cx="360" cy="324" r="14" fill="#E0B84C"/><circle cx="360" cy="324" r="6" fill="#B8923C"/></g>
    <path d="M178,512 L190,320 Q256,284 322,320 L334,512 Z" fill="#7A3FA0"/>
    <path d="M178,512 L190,320 Q226,300 256,304 L256,512 Z" fill="#5A2A7E" opacity="0.5"/>
    <path d="M226,296 L256,330 L286,296 L274,288 L256,312 L238,288 Z" fill="#FFD93D"/>
    <rect x="226" y="306" width="60" height="12" rx="4" fill="#E04F4F"/><path d="M164,205 Q162,113 256,111 Q350,113 348,205 Q348,153 334,159 Q256,137 178,159 Q164,153 164,205 Z" fill="#2B2620"/>
    <ellipse cx="256" cy="205" rx="92" ry="86" fill="#FBE0C4"/>
    <ellipse cx="210" cy="231" rx="17" ry="11" fill="#F7A8A0" opacity="0.55"/>
    <ellipse cx="302" cy="231" rx="17" ry="11" fill="#F7A8A0" opacity="0.55"/>
    <path d="M256,70 L300,156 L212,156 Z" fill="#FFFFFF"/><path d="M256,70 L300,156 L256,156 Z" fill="#EDEDED"/><circle cx="256" cy="84" r="8" fill="#E04F4F"/><path d="M212,156 L300,156 L294,168 L218,168 Z" fill="#7A3FA0"/><path d="M205,172 Q218,167 231,171" stroke="#2B2118" stroke-width="5" fill="none" stroke-linecap="round"/><path d="M281,171 Q294,167 307,172" stroke="#2B2118" stroke-width="5" fill="none" stroke-linecap="round"/><ellipse cx="218" cy="200" rx="14" ry="18" fill="#F3E9FF"/><circle cx="218" cy="203" r="10" fill="#6A4C93"/><circle cx="218" cy="203" r="5" fill="#B79CE0"/><circle cx="222" cy="198" r="3.2" fill="#FFFFFF"/><ellipse cx="294" cy="200" rx="14" ry="18" fill="#F3E9FF"/><circle cx="294" cy="203" r="10" fill="#6A4C93"/><circle cx="294" cy="203" r="5" fill="#B79CE0"/><circle cx="298" cy="198" r="3.2" fill="#FFFFFF"/><path d="M240,252 Q260,260 276,244" stroke="#8A2F5F" stroke-width="5" fill="none" stroke-linecap="round"/><circle cx="256" cy="172" r="4" fill="#C780FA"/>
</svg>