<svg xmlns="http://www.w3.org/2000/svg" viewBox="0 0 512 512" width="512" height="512">

    <defs>
      <radialGradient id="slavebg" cx="50%" cy="42%" r="75%">
        <stop offset="0%" stop-color="#C9B79A"/>
        <stop offset="100%" stop-color="#8A7456"/>
      </radialGradient>
      <filter id="soft"><feGaussianBlur stdDeviation="3"/></filter>
    </defs>
    <rect width="512" height="512" fill="url(#slavebg)"/>
    <g opacity="0.16"><path d="M40,460 q20,-30 40,0" stroke="#5E4A30" stroke-width="3" fill="none"/><path d="M140,460 q20,-30 40,0" stroke="#5E4A30" stroke-width="3" fill="none"/><path d="M240,460 q20,-30 40,0" stroke="#5E4A30" stroke-width="3" fill="none"/><path d="M340,460 q20,-30 40,0" stroke="#5E4A30" stroke-width="3" fill="none"/><path d="M440,460 q20,-30 40,0" stroke="#5E4A30" stroke-width="3" fill="none"/></g><text x="400" y="120" font-size="48" opacity="0.3">💦</text>
    <ellipse cx="256" cy="505" rx="120" ry="18" fill="#000000" opacity="0.18"/><g transform="rotate(-8 150 360)"><rect x="120" y="300" width="60" height="60" rx="6" fill="#8B6F47"/><rect x="128" y="290" width="44" height="18" rx="4" fill="#A6855A"/></g>
    <path d="M178,512 L190,320 Q256,284 322,320 L334,512 Z" fill="#9A8C72"/>
    <path d="M178,512 L190,320 Q226,300 256,304 L256,512 Z" fill="#7A6E58" opacity="0.5"/>
    <path d="M226,296 L256,330 L286,296 L274,288 L256,312 L238,288 Z" fill="#C9B79A"/>
    <ellipse cx="200" cy="380" rx="22" ry="34" fill="#E8B89A"/><ellipse cx="312" cy="380" rx="22" ry="34" fill="#E8B89A"/><path d="M164,195 Q164,111 256,109 Q348,111 348,195 Q340,149 256,141 Q172,149 164,195 Z" fill="#2B2620"/>
    <ellipse cx="256" cy="205" rx="92" ry="86" fill="#EAC59C"/>
    <ellipse cx="210" cy="231" rx="17" ry="11" fill="#F7A8A0" opacity="0.55"/>
    <ellipse cx="302" cy="231" rx="17" ry="11" fill="#F7A8A0" opacity="0.55"/>
    <path d="M176,168 Q256,140 336,168 L330,150 Q256,128 182,150 Z" fill="#D8CDB6"/><path d="M330,160 L356,200 L340,206 L322,168 Z" fill="#D8CDB6"/><path d="M210,165 q-4,12 0,16 q6,-2 4,-14 Z" fill="#7EC8E3"/><path d="M205,172 Q218,167 231,171" stroke="#3A2A1A" stroke-width="5" fill="none" stroke-linecap="round"/><path d="M281,171 Q294,167 307,172" stroke="#3A2A1A" stroke-width="5" fill="none" stroke-linecap="round"/><ellipse cx="218" cy="200" rx="13" ry="17" fill="#FFFFFF"/><circle cx="218" cy="203" r="10" fill="#2B2118"/><circle cx="221" cy="199" r="3.4" fill="#FFFFFF"/><ellipse cx="294" cy="200" rx="13" ry="17" fill="#FFFFFF"/><circle cx="294" cy="203" r="10" fill="#2B2118"/><circle cx="297" cy="199" r="3.4" fill="#FFFFFF"/><path d="M238,250 Q256,266 274,250" stroke="#B5433A" stroke-width="5" fill="none" stroke-linecap="round"/>
</svg>