<svg xmlns="http://www.w3.org/2000/svg" viewBox="0 0 512 512" width="512" height="512">

    <defs>
      <radialGradient id="warbg" cx="50%" cy="42%" r="75%">
        <stop offset="0%" stop-color="#A85A3A"/>
        <stop offset="100%" stop-color="#5E2A1E"/>
      </radialGradient>
      <filter id="soft"><feGaussianBlur stdDeviation="3"/></filter>
    </defs>
    <rect width="512" height="512" fill="url(#warbg)"/>
    <g opacity="0.2"><path d="M60,30 L75,90 L60,80 L45,90 Z" fill="#6E0F0F"/><path d="M150,30 L165,90 L150,80 L135,90 Z" fill="#6E0F0F"/><path d="M240,30 L255,90 L240,80 L225,90 Z" fill="#6E0F0F"/><path d="M330,30 L345,90 L330,80 L315,90 Z" fill="#6E0F0F"/><path d="M420,30 L435,90 L420,80 L405,90 Z" fill="#6E0F0F"/></g><path d="M40,256 L120,256 M392,256 L472,256" stroke="#6E0F0F" stroke-width="4" opacity="0.3"/>
    <ellipse cx="256" cy="505" rx="120" ry="18" fill="#000000" opacity="0.18"/><g transform="rotate(18 360 360)"><rect x="352" y="250" width="16" height="210" rx="4" fill="#C8CDD4"/><rect x="348" y="448" width="24" height="34" rx="4" fill="#3A2A1A"/><circle cx="360" cy="448" r="14" fill="#E0B84C"/></g>
    <path d="M178,512 L190,320 Q256,284 322,320 L334,512 Z" fill="#3A4A3A"/>
    <path d="M178,512 L190,320 Q226,300 256,304 L256,512 Z" fill="#28342A" opacity="0.5"/>
    <path d="M226,296 L256,330 L286,296 L274,288 L256,312 L238,288 Z" fill="#8A2F2F"/>
    <g fill="#5E7050"><rect x="232" y="330" width="13" height="13" rx="3"/><rect x="248" y="330" width="13" height="13" rx="3"/><rect x="264" y="330" width="13" height="13" rx="3"/><rect x="232" y="346" width="13" height="13" rx="3"/><rect x="248" y="346" width="13" height="13" rx="3"/><rect x="264" y="346" width="13" height="13" rx="3"/><rect x="232" y="362" width="13" height="13" rx="3"/><rect x="248" y="362" width="13" height="13" rx="3"/><rect x="264" y="362" width="13" height="13" rx="3"/><rect x="232" y="378" width="13" height="13" rx="3"/><rect x="248" y="378" width="13" height="13" rx="3"/><rect x="264" y="378" width="13" height="13" rx="3"/></g><path d="M164,195 Q164,111 256,109 Q348,111 348,195 Q340,149 256,141 Q172,149 164,195 Z" fill="#2B2620"/>
    <ellipse cx="256" cy="205" rx="92" ry="86" fill="#F0CBA8"/>
    <ellipse cx="210" cy="231" rx="17" ry="11" fill="#F7A8A0" opacity="0.55"/>
    <ellipse cx="302" cy="231" rx="17" ry="11" fill="#F7A8A0" opacity="0.55"/>
    <path d="M180,160 Q256,96 332,160 L332,150 Q256,80 180,150 Z" fill="#4A4036"/><path d="M186,158 Q256,110 326,158 L320,140 Q256,98 192,140 Z" fill="#6B5E4A"/><rect x="248" y="86" width="16" height="34" rx="4" fill="#8A2F2F"/><circle cx="256" cy="84" r="10" fill="#E0B84C"/><path d="M180,158 L180,178 Q190,186 200,180 L200,160 Z" fill="#4A4036"/><path d="M332,158 L332,178 Q322,186 312,180 L312,160 Z" fill="#4A4036"/><path d="M204,176 L232,168" stroke="#3A2A1A" stroke-width="6" stroke-linecap="round"/><path d="M280,168 L308,176" stroke="#3A2A1A" stroke-width="6" stroke-linecap="round"/><path d="M203,196 Q218,188 233,196" stroke="#2B2118" stroke-width="5" fill="none" stroke-linecap="round"/><circle cx="218" cy="202" r="7" fill="#2B2118"/><path d="M279,196 Q294,188 309,196" stroke="#2B2118" stroke-width="5" fill="none" stroke-linecap="round"/><circle cx="294" cy="202" r="7" fill="#2B2118"/><path d="M240,258 Q256,244 272,258" stroke="#B5433A" stroke-width="5" fill="none" stroke-linecap="round"/>
</svg>